<?xml version="1.0" standalone="no"?>
<!DOCTYPE svg PUBLIC "-//W3C//DTD SVG 20010904//EN"
 "http://www.w3.org/TR/2001/REC-SVG-20010904/DTD/svg10.dtd">
<svg version="1.0" xmlns="http://www.w3.org/2000/svg"
 width="1456.000000pt" height="1456.000000pt" viewBox="0 0 1456.000000 1456.000000"
 preserveAspectRatio="xMidYMid meet">
<metadata>
Created by potrace 1.11, written by Peter Selinger 2001-2013
</metadata>
<g transform="translate(0.000000,1456.000000) scale(0.100000,-0.100000)"
fill="#000000" stroke="none">
<path d="M11350 14508 c-14 -7 -45 -21 -70 -32 -25 -11 -47 -20 -50 -21 -3 -1
-23 -9 -45 -20 -22 -10 -45 -19 -51 -20 -7 -2 -35 -14 -63 -29 -28 -14 -51
-23 -51 -21 0 2 -27 -10 -60 -26 -32 -15 -70 -31 -85 -35 -14 -3 -25 -11 -25
-17 0 -6 -3 -7 -6 -4 -4 4 -19 0 -33 -7 -14 -8 -55 -26 -91 -41 -36 -15 -93
-40 -128 -56 -35 -16 -69 -29 -76 -29 -6 0 -16 -4 -21 -9 -6 -5 -39 -21 -75
-36 -36 -15 -148 -63 -250 -107 -233 -102 -249 -109 -252 -106 -2 1 -14 -5
-28 -12 -14 -8 -32 -15 -40 -16 -8 -2 -16 -8 -18 -13 -2 -6 -10 -11 -18 -11
-12 0 -46 -14 -161 -66 -17 -8 -34 -14 -37 -14 -4 0 -44 -18 -91 -40 -47 -22
-87 -40 -89 -40 -3 0 -31 -12 -63 -26 -32 -14 -71 -31 -88 -39 -16 -7 -51 -22
-77 -34 -26 -12 -49 -21 -53 -21 -3 0 -24 -9 -48 -19 -23 -11 -73 -33 -110
-50 -38 -17 -75 -31 -83 -31 -8 0 -14 -4 -14 -9 0 -5 -11 -12 -25 -15 -14 -4
-55 -20 -91 -36 -35 -17 -67 -30 -69 -30 -2 0 -34 -13 -70 -30 -36 -16 -68
-30 -70 -30 -2 0 -29 -11 -59 -25 -30 -14 -60 -25 -65 -25 -6 0 -11 -4 -11 -8
0 -5 -6 -9 -12 -9 -7 0 -35 -10 -63 -23 -27 -12 -68 -30 -90 -40 -22 -10 -56
-24 -75 -33 -33 -15 -89 -38 -100 -42 -5 -2 -70 -29 -110 -47 -14 -6 -41 -19
-60 -29 -19 -9 -38 -18 -42 -19 -4 0 -23 -7 -42 -15 -20 -8 -40 -15 -46 -15
-5 0 -10 -3 -10 -8 0 -4 -18 -13 -40 -20 -22 -6 -67 -25 -100 -41 -33 -16 -60
-28 -60 -26 0 2 -24 -8 -52 -23 -29 -14 -55 -27 -58 -27 -34 -8 -60 -19 -60
-24 0 -4 -6 -8 -12 -8 -11 0 -86 -31 -128 -52 -8 -5 -71 -32 -140 -61 -69 -29
-153 -65 -188 -81 -35 -16 -66 -29 -69 -29 -2 0 -34 -14 -71 -31 -36 -16 -104
-46 -151 -65 -47 -20 -106 -45 -131 -56 -25 -11 -61 -27 -80 -35 -19 -8 -55
-24 -80 -36 -25 -11 -47 -21 -50 -22 -3 0 -14 -6 -25 -12 -11 -6 -22 -11 -25
-11 -3 0 -18 -5 -33 -11 -16 -6 -33 -11 -38 -11 -5 0 -9 -4 -9 -9 0 -5 -12
-12 -27 -16 -15 -3 -47 -15 -70 -26 -39 -18 -90 -40 -103 -44 -6 -2 -73 -32
-127 -56 -23 -10 -44 -19 -47 -19 -3 0 -33 -13 -66 -29 -33 -16 -60 -27 -60
-25 0 3 -10 -2 -22 -10 -12 -9 -30 -16 -40 -16 -10 0 -18 -4 -18 -10 0 -5 -6
-10 -12 -10 -11 0 -56 -18 -238 -97 -19 -8 -53 -23 -75 -33 -22 -10 -80 -35
-130 -56 -49 -20 -97 -43 -105 -50 -8 -7 -19 -13 -25 -14 -5 -1 -44 -18 -85
-37 -41 -20 -77 -37 -80 -37 -3 -1 -9 -4 -15 -8 -5 -3 -50 -27 -100 -53 -127
-67 -314 -178 -407 -241 -43 -30 -83 -54 -88 -54 -4 0 -10 -3 -12 -8 -2 -4
-37 -32 -78 -62 -41 -30 -98 -73 -126 -95 -29 -22 -67 -51 -85 -65 -36 -28
-169 -158 -209 -205 -14 -16 -49 -61 -79 -100 -29 -38 -58 -77 -64 -85 -7 -8
-13 -19 -14 -23 0 -5 -9 -19 -19 -31 -11 -12 -30 -44 -44 -72 -13 -27 -27 -51
-31 -54 -14 -11 -131 -270 -122 -270 3 0 -1 -10 -9 -22 -13 -20 -48 -113 -54
-143 -1 -5 -10 -32 -19 -59 -9 -26 -18 -56 -20 -65 -3 -9 -12 -43 -21 -76 -9
-33 -18 -69 -20 -79 -2 -11 -13 -65 -24 -120 -12 -56 -24 -119 -26 -141 -3
-22 -8 -51 -10 -65 -3 -14 -7 -50 -10 -80 -3 -30 -7 -66 -10 -80 -28 -159 -21
-929 11 -1150 16 -111 40 -234 56 -300 11 -41 22 -86 25 -100 6 -31 33 -109
45 -132 5 -10 9 -24 9 -33 0 -8 13 -44 30 -80 16 -36 30 -69 30 -73 0 -7 16
-39 91 -182 53 -99 143 -235 204 -307 6 -6 27 -31 47 -55 93 -109 227 -235
333 -312 22 -16 42 -32 45 -36 11 -14 192 -129 250 -158 19 -9 37 -20 38 -24
2 -5 8 -8 12 -8 5 0 46 -18 92 -39 115 -54 199 -90 223 -97 6 -1 93 -31 195
-66 102 -35 187 -64 190 -64 8 -1 363 -115 385 -124 11 -5 52 -19 90 -31 39
-12 108 -35 155 -51 47 -16 93 -31 102 -33 31 -7 242 -76 253 -83 5 -4 18 -8
28 -9 17 -3 126 -37 157 -50 8 -3 20 -7 26 -8 6 -2 153 -49 325 -105 173 -57
320 -103 327 -103 6 0 12 -4 12 -9 0 -4 9 -8 19 -8 11 0 32 -5 48 -12 15 -6
33 -12 38 -13 6 0 17 -4 25 -7 16 -7 91 -32 100 -33 17 -3 86 -29 92 -34 4 -4
-23 -20 -60 -36 -37 -15 -89 -38 -117 -51 -27 -12 -102 -44 -165 -72 -63 -27
-137 -60 -165 -72 -27 -12 -59 -26 -70 -30 -11 -5 -50 -22 -86 -39 -37 -17
-74 -31 -82 -31 -8 0 -17 -5 -19 -11 -2 -5 -10 -11 -18 -13 -8 -1 -37 -12 -64
-24 -27 -12 -50 -22 -52 -22 -1 0 -35 -15 -76 -34 -40 -18 -98 -43 -128 -56
-30 -12 -73 -30 -95 -40 -142 -65 -176 -80 -183 -80 -4 0 -24 -9 -45 -20 -20
-11 -37 -17 -37 -14 0 3 -7 -2 -16 -10 -8 -9 -23 -16 -32 -16 -10 0 -26 -6
-37 -13 -11 -7 -67 -33 -125 -57 -58 -24 -129 -57 -157 -72 -29 -15 -53 -25
-53 -22 0 3 -14 -4 -30 -16 -17 -12 -37 -23 -44 -24 -7 -1 -24 -8 -37 -16 -13
-8 -73 -40 -134 -70 -60 -30 -116 -61 -124 -68 -8 -8 -24 -18 -35 -23 -40 -19
-227 -136 -308 -194 -31 -22 -66 -47 -78 -55 -12 -8 -30 -22 -40 -30 -10 -8
-30 -24 -45 -34 -14 -11 -35 -27 -46 -37 -11 -9 -38 -32 -61 -51 -87 -70 -218
-197 -295 -285 -32 -36 -67 -76 -78 -89 -11 -12 -29 -35 -40 -50 -11 -15 -24
-32 -30 -39 -5 -6 -14 -18 -20 -27 -5 -9 -32 -49 -60 -90 -27 -40 -58 -90 -68
-110 -11 -21 -23 -38 -28 -38 -5 0 -8 -3 -7 -7 1 -5 -24 -61 -55 -126 -31 -64
-57 -120 -57 -123 0 -3 -6 -20 -14 -37 -35 -76 -102 -306 -122 -417 -3 -14 -7
-32 -9 -40 -3 -8 -7 -33 -10 -55 -3 -22 -7 -51 -10 -65 -3 -14 -8 -56 -11 -95
-3 -38 -8 -81 -11 -95 -4 -14 -8 -508 -10 -1097 l-4 -1073 23 9 c13 5 55 23
93 41 64 30 112 51 125 55 9 3 137 58 185 80 82 37 151 67 205 90 58 24 132
57 215 95 22 10 65 28 95 41 52 21 99 41 200 87 68 32 104 45 112 44 5 -1 8 3
8 8 0 5 3 9 7 8 10 -2 17 1 218 92 39 18 75 33 80 34 6 1 36 14 68 29 31 15
84 38 117 52 33 14 86 37 117 52 32 14 64 26 71 26 6 0 12 4 12 9 0 4 6 8 14
8 8 0 27 7 43 15 33 17 163 75 168 75 3 0 33 13 67 29 35 15 117 52 183 81 66
29 140 62 165 73 25 11 54 22 64 24 11 2 27 10 36 18 9 8 21 15 27 15 6 0 46
16 89 35 44 20 88 39 99 44 11 5 40 18 65 29 25 11 115 50 200 87 85 37 173
75 195 85 22 10 74 32 115 50 157 68 185 81 202 90 10 6 25 10 33 10 8 0 15 5
15 12 0 6 3 8 6 5 4 -4 19 0 33 7 14 8 49 24 76 36 28 12 61 28 75 35 14 7 34
15 45 17 11 1 22 5 25 8 3 3 34 19 70 34 36 16 137 60 225 98 223 98 225 98
227 96 2 -1 21 8 43 19 42 23 360 163 369 163 3 0 37 16 77 35 39 19 80 37 92
41 12 4 50 19 83 35 34 15 126 56 205 90 79 34 164 71 189 82 25 12 47 22 50
22 8 3 80 34 135 60 28 12 95 42 150 65 55 23 125 54 155 68 30 15 60 27 65
28 6 1 76 34 158 73 81 39 152 71 156 71 5 0 11 3 13 8 2 4 44 27 93 52 50 25
96 50 103 57 7 7 24 16 38 19 13 3 24 10 24 15 0 5 4 9 10 9 11 0 136 75 228
137 35 24 65 43 68 43 3 0 10 5 17 10 7 6 68 52 137 104 160 120 217 175 264
256 22 36 55 89 75 119 79 118 116 181 171 294 32 65 59 121 59 125 2 11 32
94 42 117 5 11 11 29 13 40 2 11 9 32 15 48 6 15 13 38 16 50 2 12 9 40 15 62
14 50 39 160 46 200 2 17 7 37 9 45 2 8 6 31 9 50 3 19 8 46 10 60 13 66 42
338 51 470 18 257 24 749 11 900 -4 47 -9 103 -11 125 -4 55 -14 137 -20 166
-8 40 -16 83 -20 109 -5 29 -6 35 -35 155 -11 50 -27 106 -35 125 -21 54 -28
74 -31 87 -4 19 -54 143 -82 203 -45 96 -185 327 -211 350 -3 3 -22 25 -41 50
-63 82 -186 210 -260 269 -25 20 -52 43 -60 51 -18 18 -33 29 -165 118 -128
86 -135 90 -295 168 -74 36 -143 70 -152 75 -10 5 -22 9 -28 9 -6 0 -29 9 -53
19 -49 22 -149 59 -192 71 -16 4 -49 15 -73 24 -23 8 -45 15 -47 15 -7 0 -176
51 -195 58 -8 4 -17 7 -20 8 -4 1 -51 15 -100 30 -3 1 -18 5 -35 10 -16 4 -34
10 -40 14 -5 3 -15 6 -21 7 -15 2 -155 45 -179 55 -16 6 -247 80 -265 84 -22
5 -106 31 -154 47 -32 11 -63 21 -70 23 -6 1 -18 4 -26 7 -84 29 -126 41 -137
41 -7 0 -13 4 -13 9 0 5 -3 7 -8 4 -4 -2 -48 9 -97 26 -50 16 -97 31 -105 33
-8 2 -59 17 -113 35 -54 17 -106 33 -115 35 -9 2 -37 11 -62 20 -25 10 -52 18
-60 20 -8 1 -22 5 -30 8 -12 5 -243 78 -260 82 -3 1 -12 4 -20 8 -8 3 -41 13
-73 22 -122 34 -121 33 -44 66 38 16 83 35 100 43 18 8 82 35 142 61 61 25
128 55 150 65 22 10 69 30 105 45 36 15 79 33 95 40 151 69 234 102 239 97 3
-3 6 -1 6 5 0 6 12 14 26 17 14 4 53 20 87 35 34 16 123 55 197 86 159 67 211
90 265 114 37 17 121 54 220 97 22 9 45 18 50 19 6 2 44 19 85 38 41 19 116
52 165 73 50 21 92 42 93 46 2 4 10 8 18 8 8 0 44 16 79 36 36 19 65 31 65 27
0 -4 4 -3 8 3 9 15 92 57 92 47 0 -5 4 -3 8 2 4 6 59 39 122 74 63 35 138 78
165 96 28 17 54 32 59 32 5 1 12 5 15 10 3 4 33 26 66 48 33 22 79 53 101 70
23 16 55 39 70 50 191 136 442 378 592 570 55 70 162 231 162 243 0 6 4 12 9
14 16 6 167 322 176 367 2 9 4 17 5 19 2 1 3 5 4 10 1 4 6 21 12 37 17 46 35
98 39 115 10 34 55 238 60 270 4 19 10 60 15 90 5 30 12 87 15 125 3 39 8 88
11 110 3 22 6 507 7 1078 1 570 2 1037 2 1036 0 0 -11 -5 -25 -11z"/>
</g>
</svg>
